G04 EAGLE Gerber RS-274X export*
G75*
%MOMM*%
%FSLAX34Y34*%
%LPD*%
%INSoldermask Top*%
%IPPOS*%
%AMOC8*
5,1,8,0,0,1.08239X$1,22.5*%
G01*
%ADD10C,1.524000*%
%ADD11C,1.727200*%
%ADD12C,1.511200*%
%ADD13C,0.959600*%


D10*
X241300Y615696D02*
X241300Y628904D01*
X266700Y628904D02*
X266700Y615696D01*
X393700Y615696D02*
X393700Y628904D01*
X419100Y628904D02*
X419100Y615696D01*
X292100Y615696D02*
X292100Y628904D01*
X317500Y628904D02*
X317500Y615696D01*
X368300Y615696D02*
X368300Y628904D01*
X342900Y628904D02*
X342900Y615696D01*
X419100Y691896D02*
X419100Y705104D01*
X393700Y705104D02*
X393700Y691896D01*
X368300Y691896D02*
X368300Y705104D01*
X342900Y705104D02*
X342900Y691896D01*
X317500Y691896D02*
X317500Y705104D01*
X292100Y705104D02*
X292100Y691896D01*
X266700Y691896D02*
X266700Y705104D01*
X241300Y705104D02*
X241300Y691896D01*
X469900Y628904D02*
X469900Y615696D01*
X495300Y615696D02*
X495300Y628904D01*
X622300Y628904D02*
X622300Y615696D01*
X647700Y615696D02*
X647700Y628904D01*
X520700Y628904D02*
X520700Y615696D01*
X546100Y615696D02*
X546100Y628904D01*
X596900Y628904D02*
X596900Y615696D01*
X571500Y615696D02*
X571500Y628904D01*
X647700Y691896D02*
X647700Y705104D01*
X622300Y705104D02*
X622300Y691896D01*
X596900Y691896D02*
X596900Y705104D01*
X571500Y705104D02*
X571500Y691896D01*
X546100Y691896D02*
X546100Y705104D01*
X520700Y705104D02*
X520700Y691896D01*
X495300Y691896D02*
X495300Y705104D01*
X469900Y705104D02*
X469900Y691896D01*
X685800Y628904D02*
X685800Y615696D01*
X711200Y615696D02*
X711200Y628904D01*
X838200Y628904D02*
X838200Y615696D01*
X863600Y615696D02*
X863600Y628904D01*
X736600Y628904D02*
X736600Y615696D01*
X762000Y615696D02*
X762000Y628904D01*
X812800Y628904D02*
X812800Y615696D01*
X787400Y615696D02*
X787400Y628904D01*
X863600Y691896D02*
X863600Y705104D01*
X838200Y705104D02*
X838200Y691896D01*
X812800Y691896D02*
X812800Y705104D01*
X787400Y705104D02*
X787400Y691896D01*
X762000Y691896D02*
X762000Y705104D01*
X736600Y705104D02*
X736600Y691896D01*
X711200Y691896D02*
X711200Y705104D01*
X685800Y705104D02*
X685800Y691896D01*
D11*
X58420Y533400D02*
X43180Y533400D01*
X43180Y558800D02*
X58420Y558800D01*
X58420Y584200D02*
X43180Y584200D01*
X43180Y609600D02*
X58420Y609600D01*
X58420Y635000D02*
X43180Y635000D01*
D12*
X241300Y82740D02*
X241300Y69660D01*
X266700Y69660D02*
X266700Y82740D01*
X292100Y82740D02*
X292100Y69660D01*
X317500Y69660D02*
X317500Y82740D01*
X342900Y82740D02*
X342900Y69660D01*
X368300Y69660D02*
X368300Y82740D01*
X393700Y82740D02*
X393700Y69660D01*
X393700Y222060D02*
X393700Y235140D01*
X368300Y235140D02*
X368300Y222060D01*
X342900Y222060D02*
X342900Y235140D01*
X317500Y235140D02*
X317500Y222060D01*
X292100Y222060D02*
X292100Y235140D01*
X266700Y235140D02*
X266700Y222060D01*
X241300Y222060D02*
X241300Y235140D01*
D10*
X622300Y82804D02*
X622300Y69596D01*
X647700Y69596D02*
X647700Y82804D01*
X673100Y82804D02*
X673100Y69596D01*
X698500Y69596D02*
X698500Y82804D01*
X723900Y82804D02*
X723900Y69596D01*
X723900Y221996D02*
X723900Y235204D01*
X698500Y235204D02*
X698500Y221996D01*
X673100Y221996D02*
X673100Y235204D01*
X647700Y235204D02*
X647700Y221996D01*
X622300Y221996D02*
X622300Y235204D01*
D13*
X863600Y533400D03*
X584200Y584200D03*
X482600Y711200D03*
X457200Y774700D03*
X660400Y774700D03*
X457200Y533400D03*
X482600Y533400D03*
X444500Y457200D03*
X406400Y457200D03*
X406400Y355600D03*
X406400Y330200D03*
X317500Y127000D03*
X317500Y165100D03*
X444500Y330200D03*
X444500Y355600D03*
X444500Y406400D03*
X393700Y508000D03*
X330200Y571500D03*
X355600Y596900D03*
X495300Y406400D03*
X520700Y381000D03*
X495300Y355600D03*
X368300Y139700D03*
X431800Y177800D03*
X533400Y304800D03*
X508000Y355600D03*
X381000Y469900D03*
X317500Y533400D03*
X368300Y584200D03*
X444500Y596900D03*
X584200Y342900D03*
X419100Y508000D03*
X330200Y596900D03*
X596900Y393700D03*
X546100Y393700D03*
X444500Y431800D03*
X419100Y457200D03*
X419100Y469900D03*
X419100Y495300D03*
X647700Y139700D03*
X431800Y508000D03*
X406400Y558800D03*
X444500Y508000D03*
X647700Y444500D03*
X673100Y292100D03*
X622300Y406400D03*
X584200Y571500D03*
X762000Y749300D03*
X546100Y749300D03*
X190500Y660400D03*
X660400Y749300D03*
X698500Y749300D03*
X546100Y673100D03*
X177800Y647700D03*
X457200Y723900D03*
X228600Y635000D03*
X177800Y635000D03*
X114300Y635000D03*
X584200Y685800D03*
X685800Y736600D03*
X330200Y749300D03*
X266700Y762000D03*
X635000Y647700D03*
X635000Y673100D03*
X127000Y774700D03*
X495300Y787400D03*
X431800Y355600D03*
M02*
