M48
;GenerationSoftware,Autodesk,EAGLE,9.6.2*%
;CreationDate,2020-12-27T11:31:44Z*%
FMAT,2
ICI,OFF
METRIC,TZ,000.000
T4C0.350
T3C0.800
T2C0.813
T1C1.016
%
G90
M71
T1
X5080Y55880
X5080Y53340
X5080Y63500
X5080Y60960
X5080Y58420
T2
X72390Y22860
X69850Y22860
X67310Y22860
X64770Y22860
X24130Y62230
X26670Y62230
X39370Y62230
X41910Y62230
X29210Y62230
X62230Y22860
X36830Y62230
X34290Y62230
X41910Y69850
X39370Y69850
X36830Y69850
X34290Y69850
X31750Y69850
X29210Y69850
X57150Y62230
X26670Y69850
X24130Y69850
X46990Y62230
X49530Y62230
X62230Y62230
X64770Y62230
X52070Y62230
X54610Y62230
X59690Y62230
X64770Y69850
X62230Y69850
X59690Y69850
X57150Y69850
X54610Y69850
X52070Y69850
X49530Y69850
X46990Y69850
X68580Y62230
X71120Y62230
X83820Y62230
X86360Y62230
X73660Y62230
X76200Y62230
X81280Y62230
X78740Y62230
X86360Y69850
X83820Y69850
X81280Y69850
X78740Y69850
X76200Y69850
X73660Y69850
X71120Y69850
X68580Y69850
X62230Y7620
X64770Y7620
X31750Y62230
X67310Y7620
X69850Y7620
X72390Y7620
T3
X24130Y22860
X31750Y7620
X34290Y7620
X39370Y7620
X39370Y22860
X36830Y22860
X34290Y22860
X31750Y22860
X29210Y22860
X26670Y22860
X24130Y7620
X26670Y7620
X29210Y7620
X36830Y7620
T4
X44450Y35560
X44450Y40640
X39370Y50800
X33020Y57150
X49530Y40640
X52070Y38100
X49530Y35560
X36830Y13970
X43180Y17780
X53340Y30480
X50800Y35560
X38100Y46990
X31750Y53340
X36830Y58420
X44450Y59690
X58420Y34290
X41910Y50800
X33020Y59690
X59690Y39370
X54610Y39370
X44450Y43180
X41910Y45720
X41910Y46990
X41910Y49530
X64770Y13970
X43180Y50800
X40640Y33020
X44450Y50800
X64770Y44450
X67310Y29210
X62230Y40640
X58420Y57150
X76200Y74930
X54610Y74930
X19050Y66040
X66040Y74930
X69850Y74930
X54610Y67310
X17780Y64770
X22860Y63500
X17780Y63500
X11430Y63500
X58420Y68580
X68580Y73660
X33020Y74930
X26670Y76200
X86360Y53340
X58420Y58420
X35560Y59690
X48260Y71120
X45720Y77470
X66040Y77470
X45720Y53340
X48260Y53340
X44450Y45720
X40640Y45720
X40640Y55880
X45720Y72390
X43180Y35560
X49530Y78740
X12700Y77470
X63500Y67310
X63500Y64770
X40640Y35560
X31750Y12700
X31750Y16510
X44450Y33020
M30