G04 EAGLE Gerber RS-274X export*
G75*
%MOMM*%
%FSLAX34Y34*%
%LPD*%
%INBottom Copper*%
%IPPOS*%
%AMOC8*
5,1,8,0,0,1.08239X$1,22.5*%
G01*
%ADD10C,1.320800*%
%ADD11C,1.524000*%
%ADD12C,1.308000*%
%ADD13C,0.152400*%
%ADD14C,0.756400*%


D10*
X635000Y56896D02*
X635000Y70104D01*
X660400Y70104D02*
X660400Y56896D01*
X685800Y56896D02*
X685800Y70104D01*
X711200Y70104D02*
X711200Y56896D01*
X736600Y56896D02*
X736600Y70104D01*
X736600Y209296D02*
X736600Y222504D01*
X711200Y222504D02*
X711200Y209296D01*
X685800Y209296D02*
X685800Y222504D01*
X660400Y222504D02*
X660400Y209296D01*
X635000Y209296D02*
X635000Y222504D01*
X381000Y653796D02*
X381000Y667004D01*
X406400Y667004D02*
X406400Y653796D01*
X533400Y653796D02*
X533400Y667004D01*
X558800Y667004D02*
X558800Y653796D01*
X431800Y653796D02*
X431800Y667004D01*
X457200Y667004D02*
X457200Y653796D01*
X508000Y653796D02*
X508000Y667004D01*
X482600Y667004D02*
X482600Y653796D01*
X558800Y729996D02*
X558800Y743204D01*
X533400Y743204D02*
X533400Y729996D01*
X508000Y729996D02*
X508000Y743204D01*
X482600Y743204D02*
X482600Y729996D01*
X457200Y729996D02*
X457200Y743204D01*
X431800Y743204D02*
X431800Y729996D01*
X406400Y729996D02*
X406400Y743204D01*
X381000Y743204D02*
X381000Y729996D01*
X114300Y667004D02*
X114300Y653796D01*
X139700Y653796D02*
X139700Y667004D01*
X266700Y667004D02*
X266700Y653796D01*
X292100Y653796D02*
X292100Y667004D01*
X165100Y667004D02*
X165100Y653796D01*
X190500Y653796D02*
X190500Y667004D01*
X241300Y667004D02*
X241300Y653796D01*
X215900Y653796D02*
X215900Y667004D01*
X292100Y729996D02*
X292100Y743204D01*
X266700Y743204D02*
X266700Y729996D01*
X241300Y729996D02*
X241300Y743204D01*
X215900Y743204D02*
X215900Y729996D01*
X190500Y729996D02*
X190500Y743204D01*
X165100Y743204D02*
X165100Y729996D01*
X139700Y729996D02*
X139700Y743204D01*
X114300Y743204D02*
X114300Y729996D01*
X673100Y667004D02*
X673100Y653796D01*
X698500Y653796D02*
X698500Y667004D01*
X825500Y667004D02*
X825500Y653796D01*
X850900Y653796D02*
X850900Y667004D01*
X723900Y667004D02*
X723900Y653796D01*
X749300Y653796D02*
X749300Y667004D01*
X800100Y667004D02*
X800100Y653796D01*
X774700Y653796D02*
X774700Y667004D01*
X850900Y729996D02*
X850900Y743204D01*
X825500Y743204D02*
X825500Y729996D01*
X800100Y729996D02*
X800100Y743204D01*
X774700Y743204D02*
X774700Y729996D01*
X749300Y729996D02*
X749300Y743204D01*
X723900Y743204D02*
X723900Y729996D01*
X698500Y729996D02*
X698500Y743204D01*
X673100Y743204D02*
X673100Y729996D01*
D11*
X58420Y444500D02*
X43180Y444500D01*
X43180Y469900D02*
X58420Y469900D01*
X58420Y495300D02*
X43180Y495300D01*
X43180Y520700D02*
X58420Y520700D01*
X58420Y546100D02*
X43180Y546100D01*
D12*
X241300Y57340D02*
X241300Y44260D01*
X266700Y44260D02*
X266700Y57340D01*
X292100Y57340D02*
X292100Y44260D01*
X317500Y44260D02*
X317500Y57340D01*
X342900Y57340D02*
X342900Y44260D01*
X368300Y44260D02*
X368300Y57340D01*
X393700Y57340D02*
X393700Y44260D01*
X393700Y196660D02*
X393700Y209740D01*
X368300Y209740D02*
X368300Y196660D01*
X342900Y196660D02*
X342900Y209740D01*
X317500Y209740D02*
X317500Y196660D01*
X292100Y196660D02*
X292100Y209740D01*
X266700Y209740D02*
X266700Y196660D01*
X241300Y196660D02*
X241300Y209740D01*
D13*
X577596Y736092D02*
X672084Y736092D01*
X577596Y736092D02*
X559308Y717804D01*
X399288Y717804D01*
X381000Y736092D01*
X672084Y736092D02*
X673100Y736600D01*
X381000Y736092D02*
X381000Y736600D01*
X367284Y406908D02*
X367284Y204216D01*
X367284Y406908D02*
X114300Y659892D01*
X367284Y204216D02*
X368300Y203200D01*
X114300Y659892D02*
X114300Y660400D01*
X399288Y737616D02*
X405384Y737616D01*
X399288Y737616D02*
X384048Y752856D01*
X377952Y752856D01*
X371856Y746760D01*
X371856Y649224D01*
X513588Y507492D01*
X542544Y507492D01*
X650748Y399288D01*
X650748Y205740D01*
X656844Y199644D01*
X694944Y199644D01*
X711200Y215900D01*
X406400Y736600D02*
X405384Y737616D01*
X387096Y661416D02*
X381000Y661416D01*
X387096Y661416D02*
X402336Y676656D01*
X486156Y676656D01*
X498348Y664464D01*
X498348Y560832D01*
X736092Y323088D01*
X736092Y216408D01*
X381000Y660400D02*
X381000Y661416D01*
X736092Y216408D02*
X736600Y215900D01*
X477012Y589788D02*
X406400Y660400D01*
D14*
X477012Y589788D03*
D13*
X470916Y621792D02*
X432816Y659892D01*
X431800Y660400D01*
D14*
X470916Y621792D03*
D13*
X483108Y659892D02*
X483108Y571500D01*
X659892Y394716D01*
X659892Y216408D01*
X483108Y659892D02*
X482600Y660400D01*
X659892Y216408D02*
X660400Y215900D01*
X246888Y202692D02*
X242316Y202692D01*
X246888Y202692D02*
X265176Y184404D01*
X725424Y184404D01*
X746760Y205740D01*
X746760Y617220D01*
X708660Y655320D01*
X708660Y726948D01*
X699516Y736092D01*
X242316Y202692D02*
X241300Y203200D01*
X698500Y736600D02*
X699516Y736092D01*
X348996Y202692D02*
X342900Y202692D01*
X348996Y202692D02*
X364236Y187452D01*
X371856Y187452D01*
X384048Y199644D01*
X384048Y345948D01*
X539496Y501396D01*
X342900Y203200D02*
X342900Y202692D01*
D14*
X539496Y501396D03*
D13*
X374904Y51816D02*
X368808Y51816D01*
X374904Y51816D02*
X504444Y181356D01*
X726948Y181356D01*
X749808Y204216D01*
X749808Y633984D01*
X723900Y659892D01*
X368808Y51816D02*
X368300Y50800D01*
X723900Y659892D02*
X723900Y660400D01*
X196596Y737616D02*
X190500Y737616D01*
X196596Y737616D02*
X217932Y758952D01*
X435864Y758952D01*
X457200Y737616D01*
X190500Y737616D02*
X190500Y736600D01*
X742188Y737616D02*
X748284Y737616D01*
X742188Y737616D02*
X723900Y755904D01*
X475488Y755904D01*
X457200Y737616D01*
X748284Y737616D02*
X749300Y736600D01*
X457200Y736600D02*
X457200Y737616D01*
X51816Y621792D02*
X51816Y547116D01*
X51816Y621792D02*
X126492Y696468D01*
X155448Y696468D01*
X176784Y717804D01*
X51816Y547116D02*
X50800Y546100D01*
D14*
X176784Y717804D03*
D13*
X216408Y737616D02*
X222504Y737616D01*
X240792Y755904D01*
X432816Y755904D01*
X448056Y740664D01*
X448056Y725424D01*
X452628Y720852D01*
X466344Y720852D01*
X481584Y736092D01*
X216408Y737616D02*
X215900Y736600D01*
X481584Y736092D02*
X482600Y736600D01*
X768096Y736092D02*
X774192Y736092D01*
X768096Y736092D02*
X752856Y720852D01*
X719328Y720852D01*
X708660Y731520D01*
X708660Y746760D01*
X702564Y752856D01*
X498348Y752856D01*
X483108Y737616D01*
X774192Y736092D02*
X774700Y736600D01*
X483108Y737616D02*
X482600Y736600D01*
X50292Y524256D02*
X50292Y521208D01*
X50292Y524256D02*
X32004Y542544D01*
X32004Y606552D01*
X124968Y699516D01*
X149352Y699516D01*
X173736Y723900D01*
X182880Y723900D01*
X185928Y720852D01*
X199644Y720852D01*
X214884Y736092D01*
X50292Y521208D02*
X50800Y520700D01*
X214884Y736092D02*
X215900Y736600D01*
X51816Y473964D02*
X51816Y470916D01*
X51816Y473964D02*
X105156Y527304D01*
X105156Y670560D01*
X128016Y693420D01*
X224028Y693420D01*
X266700Y736092D01*
X51816Y470916D02*
X50800Y469900D01*
X266700Y736092D02*
X266700Y736600D01*
X164592Y736092D02*
X158496Y736092D01*
X124968Y702564D01*
X123444Y702564D01*
X28956Y608076D01*
X28956Y466344D01*
X50800Y444500D01*
X164592Y736092D02*
X165100Y736600D01*
M02*
