G04 EAGLE Gerber RS-274X export*
G75*
%MOMM*%
%FSLAX34Y34*%
%LPD*%
%INSoldermask Bottom*%
%IPPOS*%
%AMOC8*
5,1,8,0,0,1.08239X$1,22.5*%
G01*
%ADD10C,1.524000*%
%ADD11C,1.727200*%
%ADD12C,1.511200*%
%ADD13C,0.959600*%


D10*
X635000Y56896D02*
X635000Y70104D01*
X660400Y70104D02*
X660400Y56896D01*
X685800Y56896D02*
X685800Y70104D01*
X711200Y70104D02*
X711200Y56896D01*
X736600Y56896D02*
X736600Y70104D01*
X736600Y209296D02*
X736600Y222504D01*
X711200Y222504D02*
X711200Y209296D01*
X685800Y209296D02*
X685800Y222504D01*
X660400Y222504D02*
X660400Y209296D01*
X635000Y209296D02*
X635000Y222504D01*
X381000Y653796D02*
X381000Y667004D01*
X406400Y667004D02*
X406400Y653796D01*
X533400Y653796D02*
X533400Y667004D01*
X558800Y667004D02*
X558800Y653796D01*
X431800Y653796D02*
X431800Y667004D01*
X457200Y667004D02*
X457200Y653796D01*
X508000Y653796D02*
X508000Y667004D01*
X482600Y667004D02*
X482600Y653796D01*
X558800Y729996D02*
X558800Y743204D01*
X533400Y743204D02*
X533400Y729996D01*
X508000Y729996D02*
X508000Y743204D01*
X482600Y743204D02*
X482600Y729996D01*
X457200Y729996D02*
X457200Y743204D01*
X431800Y743204D02*
X431800Y729996D01*
X406400Y729996D02*
X406400Y743204D01*
X381000Y743204D02*
X381000Y729996D01*
X114300Y667004D02*
X114300Y653796D01*
X139700Y653796D02*
X139700Y667004D01*
X266700Y667004D02*
X266700Y653796D01*
X292100Y653796D02*
X292100Y667004D01*
X165100Y667004D02*
X165100Y653796D01*
X190500Y653796D02*
X190500Y667004D01*
X241300Y667004D02*
X241300Y653796D01*
X215900Y653796D02*
X215900Y667004D01*
X292100Y729996D02*
X292100Y743204D01*
X266700Y743204D02*
X266700Y729996D01*
X241300Y729996D02*
X241300Y743204D01*
X215900Y743204D02*
X215900Y729996D01*
X190500Y729996D02*
X190500Y743204D01*
X165100Y743204D02*
X165100Y729996D01*
X139700Y729996D02*
X139700Y743204D01*
X114300Y743204D02*
X114300Y729996D01*
X673100Y667004D02*
X673100Y653796D01*
X698500Y653796D02*
X698500Y667004D01*
X825500Y667004D02*
X825500Y653796D01*
X850900Y653796D02*
X850900Y667004D01*
X723900Y667004D02*
X723900Y653796D01*
X749300Y653796D02*
X749300Y667004D01*
X800100Y667004D02*
X800100Y653796D01*
X774700Y653796D02*
X774700Y667004D01*
X850900Y729996D02*
X850900Y743204D01*
X825500Y743204D02*
X825500Y729996D01*
X800100Y729996D02*
X800100Y743204D01*
X774700Y743204D02*
X774700Y729996D01*
X749300Y729996D02*
X749300Y743204D01*
X723900Y743204D02*
X723900Y729996D01*
X698500Y729996D02*
X698500Y743204D01*
X673100Y743204D02*
X673100Y729996D01*
D11*
X58420Y444500D02*
X43180Y444500D01*
X43180Y469900D02*
X58420Y469900D01*
X58420Y495300D02*
X43180Y495300D01*
X43180Y520700D02*
X58420Y520700D01*
X58420Y546100D02*
X43180Y546100D01*
D12*
X241300Y57340D02*
X241300Y44260D01*
X266700Y44260D02*
X266700Y57340D01*
X292100Y57340D02*
X292100Y44260D01*
X317500Y44260D02*
X317500Y57340D01*
X342900Y57340D02*
X342900Y44260D01*
X368300Y44260D02*
X368300Y57340D01*
X393700Y57340D02*
X393700Y44260D01*
X393700Y196660D02*
X393700Y209740D01*
X368300Y209740D02*
X368300Y196660D01*
X342900Y196660D02*
X342900Y209740D01*
X317500Y209740D02*
X317500Y196660D01*
X292100Y196660D02*
X292100Y209740D01*
X266700Y209740D02*
X266700Y196660D01*
X241300Y196660D02*
X241300Y209740D01*
D13*
X477012Y589788D03*
X470916Y621792D03*
X539496Y501396D03*
X176784Y717804D03*
M02*
